<svg width="40" height="40" viewBox="0 0 40 40" fill="none" xmlns="http://www.w3.org/2000/svg">
<g clip-path="url(#clip0_1508_26)">
<path d="M20.0344 0C31.0751 0.0989176 40.0026 8.88854 40 20.0387C39.9974 31.0776 31.0507 40.0115 19.9661 40C8.95414 39.9882 -0.0556724 31.055 -0.000295401 19.9148C0.0547947 8.90402 8.91741 0.0607842 20.0344 0ZM20.0009 0.754068C9.46975 0.660024 0.723336 9.42614 0.721615 19.9986C0.719606 30.5764 9.42413 39.2823 19.9842 39.2852C30.6043 39.2884 39.2778 30.5742 39.2893 20.0301C39.301 9.45337 30.5959 0.680955 20.0006 0.754355L20.0009 0.754068Z" fill="#113393"/>
<path d="M20.0009 0.754076C30.5963 0.680676 39.3014 9.45309 39.2896 20.0298C39.2781 30.5739 30.6046 39.2881 19.9845 39.2849C9.42444 39.2818 0.719916 30.5759 0.721924 19.9983C0.723646 9.42614 9.47006 0.660033 20.0009 0.754076ZM9.76732 8.95162C9.78511 8.98975 9.80319 9.0276 9.82098 9.06573C9.8818 9.08695 9.94091 9.11505 10.0035 9.12853C11.1058 9.3645 12.0794 9.87199 12.9129 10.6132C14.92 12.3983 15.6499 14.7774 15.8829 17.3387C16.0063 18.6963 15.9922 20.0737 15.5182 21.3866C15.2585 22.1054 14.9794 22.8227 14.631 23.5011C14.4503 23.8532 14.3384 24.1124 14.6299 24.4384C14.7492 24.572 14.8313 24.7472 14.901 24.9155C15.3056 25.8915 15.7257 26.8623 16.0921 27.8526C16.3411 28.5253 16.5342 29.2211 16.7098 29.917C16.88 30.5908 16.9988 31.2778 17.1353 31.9601C17.3362 32.9625 17.5488 33.9632 17.7267 34.9698C17.8793 35.8328 18.3499 36.3891 19.1154 36.4398C19.757 36.4823 20.4092 36.4997 21.0464 36.4321C21.5819 36.375 22.0868 36.1018 22.257 35.5499C22.4527 34.9151 22.5497 34.249 22.6768 33.5942C22.8363 32.773 22.9416 31.9386 23.145 31.1289C23.4248 30.0162 23.774 28.9206 24.0953 27.8182C24.4557 26.5819 24.9538 25.4052 25.5802 24.2784C25.6668 24.1224 25.662 23.8222 25.5667 23.6731C24.8505 22.5524 24.4348 21.3149 24.3352 20.0152C24.1722 17.8835 24.2397 15.7626 25.0798 13.7309C25.9509 11.6238 27.3488 10.0764 29.5349 9.30772C29.8098 9.2111 30.0881 9.12365 30.3897 9.02359C30.3197 8.92782 30.2875 8.83321 30.2267 8.80855C29.6703 8.58262 29.1215 8.32629 28.5467 8.16114C27.5491 7.87471 26.5153 7.85464 25.4915 7.96159C24.3493 8.08086 23.3189 8.50492 22.4438 9.27332C21.8432 9.80088 21.371 10.4167 21.0419 11.1485C20.8533 11.5679 19.5306 11.719 19.2273 11.3701C19.1849 11.3213 19.1487 11.2646 19.122 11.2055C18.2917 9.36048 16.8381 8.2936 14.8749 7.98796C13.3341 7.74798 11.8105 7.96015 10.3644 8.58118C10.1515 8.67265 9.9653 8.82661 9.76675 8.95162H9.76732ZM3.56279 11.6714C4.11915 11.5903 4.61324 11.5467 5.09413 11.4421C5.92077 11.262 6.7322 11.4008 7.52154 11.582C8.64428 11.84 9.49302 12.5545 10.1309 13.4906C10.6915 14.3135 11.1314 15.194 11.342 16.1915C11.5672 17.2584 11.863 18.2998 11.5322 19.4022C11.3658 19.9564 11.1578 20.4676 10.6795 20.8149C9.94407 21.3487 9.23966 21.1148 8.87612 20.2798C8.61244 19.6746 8.85747 19.1364 9.04369 18.6074C9.34381 17.7544 9.89357 17.0465 10.5105 16.3891C10.5963 16.2976 10.6562 16.0992 10.6183 15.9882C10.3374 15.17 9.99112 14.393 9.4517 13.6899C8.65978 12.658 7.61077 12.2257 6.36751 12.1213C6.09178 12.0981 5.9331 12.2179 5.79194 12.4358C4.69874 14.1237 4.14899 15.9974 3.97683 17.9761C3.86321 19.2795 4.06894 20.5628 4.51138 21.8046C5.20574 23.7537 6.44699 25.0781 8.53353 25.5629C10.4442 26.007 12.5405 25.2745 13.7226 23.7058C14.7685 22.3181 15.1891 20.7317 15.2631 19.0421C15.2944 18.3264 15.1541 17.6045 15.1234 16.8842C15.0554 15.2953 14.5389 13.8513 13.6934 12.5264C12.7674 11.0756 11.437 10.1249 9.7567 9.79601C8.15393 9.48234 6.55344 9.63831 5.06658 10.3775C4.48871 10.6648 3.91543 11.0065 3.56337 11.6711L3.56279 11.6714ZM36.6286 11.6832C36.1948 11.0318 35.6422 10.6625 35.0488 10.3563C34.1831 9.90983 33.2455 9.7616 32.2794 9.69365C31.0708 9.60878 29.926 9.78339 28.8497 10.3451C26.8983 11.3635 25.8439 13.0798 25.2915 15.1169C24.9297 16.4504 24.8207 17.8367 24.8979 19.2262C24.9791 20.6867 25.3139 22.0595 26.1423 23.3047C27.3485 25.1179 29.5088 26.1102 31.7064 25.5411C33.5413 25.066 34.7645 23.9564 35.4889 22.2456C35.9736 21.101 36.1724 19.891 36.1311 18.6627C36.0987 17.6962 35.9813 16.7243 35.8017 15.7735C35.6037 14.727 35.128 13.7679 34.6221 12.8323C34.3401 12.3105 33.9826 11.9791 33.3126 12.1425C32.5517 12.3283 31.8352 12.5711 31.2407 13.1087C30.3762 13.8903 29.8735 14.8873 29.5163 15.9685C29.4778 16.0849 29.5475 16.2761 29.6296 16.3862C29.9033 16.7529 30.2255 17.0841 30.493 17.4548C31.068 18.2513 31.4438 19.1192 31.3024 20.1336C31.2814 20.283 31.2266 20.443 31.1408 20.5654C30.7566 21.1145 30.0973 21.2968 29.4652 20.8169C28.7777 20.295 28.5528 19.5295 28.5008 18.7404C28.4601 18.1214 28.5766 17.4878 28.6609 16.8656C28.8176 15.7061 29.2443 14.6498 29.8827 13.6644C31.0823 11.8119 32.9605 11.1639 35.066 11.4538C35.5544 11.5212 36.0416 11.5963 36.6292 11.6826L36.6286 11.6832Z" fill="#FFED00"/>
<path d="M9.76732 8.95162C9.96587 8.82661 10.1521 8.67264 10.365 8.58118C11.8111 7.96015 13.3347 7.74769 14.8755 7.98796C16.8386 8.29388 18.2922 9.36076 19.1226 11.2055C19.149 11.2643 19.1854 11.3213 19.2279 11.3701C19.5312 11.7187 20.8539 11.5676 21.0424 11.1484C21.3715 10.4167 21.8435 9.80059 22.4444 9.27331C23.3195 8.50491 24.3498 8.08114 25.4921 7.96158C26.5161 7.85463 27.5497 7.8747 28.5473 8.16113C29.122 8.32628 29.6712 8.58261 30.2273 8.80854C30.2878 8.8332 30.3202 8.92782 30.3902 9.02358C30.0884 9.12365 29.8104 9.2111 29.5355 9.30772C27.3494 10.0764 25.9515 11.6238 25.0804 13.7309C24.2405 15.7629 24.1728 17.8834 24.3358 20.0152C24.4353 21.3149 24.8511 22.5524 25.5673 23.6731C25.6625 23.8219 25.6674 24.1221 25.5808 24.2784C24.9544 25.4052 24.4563 26.5819 24.0959 27.8182C23.7745 28.9207 23.4254 30.0159 23.1456 31.129C22.9419 31.9386 22.8369 32.773 22.6773 33.5942C22.5502 34.249 22.4532 34.9151 22.2576 35.5499C22.0874 36.1018 21.5824 36.375 21.047 36.4321C20.4097 36.5 19.7576 36.4823 19.116 36.4398C18.3505 36.3894 17.8799 35.8328 17.7273 34.9698C17.5494 33.9632 17.3368 32.9628 17.1359 31.9601C16.9993 31.278 16.8805 30.5911 16.7104 29.917C16.5345 29.2208 16.3414 28.525 16.0926 27.8526C15.7259 26.8623 15.3062 25.8915 14.9016 24.9155C14.8319 24.7472 14.7501 24.5717 14.6305 24.4384C14.3389 24.1124 14.4508 23.8532 14.6316 23.5011C14.9796 22.823 15.2591 22.1054 15.5188 21.3866C15.9928 20.074 16.0068 18.6963 15.8835 17.3387C15.6508 14.7777 14.9208 12.3983 12.9135 10.6131C12.08 9.87198 11.1064 9.36449 10.004 9.12852C9.94148 9.11504 9.88238 9.08695 9.82155 9.06573C9.80376 9.0276 9.78568 8.98975 9.76789 8.95162H9.76732ZM19.7053 31.8661C19.7188 31.865 19.7323 31.8638 19.7458 31.8624C19.6827 31.0243 19.6052 30.1874 19.5599 29.3484C19.4672 27.6407 19.4227 25.9296 19.2999 24.2242C19.2021 22.8663 19.0652 21.507 18.8557 20.1623C18.677 19.0148 18.3892 17.8832 18.1152 16.7526C17.8687 15.7362 17.5783 14.7304 17.2995 13.722C17.2656 13.5993 17.2088 13.4264 17.1173 13.3891C16.9718 13.3301 16.7833 13.345 16.6235 13.3783C16.5876 13.3857 16.575 13.6002 16.5876 13.7154C16.5968 13.8006 16.6814 13.8751 16.7032 13.9617C17.1606 15.7781 17.661 17.5853 18.0518 19.4157C18.3275 20.7073 18.4942 22.0265 18.634 23.3414C18.7671 24.5964 18.8262 25.8608 18.8747 27.1226C18.9585 29.3057 19.0104 31.4896 19.0715 33.6736C19.0781 33.9072 19.0994 34.0853 19.4095 34.0781C19.7039 34.0713 19.7094 33.8981 19.7076 33.6839C19.703 33.0781 19.7059 32.4722 19.7059 31.8664L19.7053 31.8661ZM23.646 13.4198C23.3634 13.3183 23.1 13.156 22.9146 13.5144C22.8314 13.6756 22.7651 13.849 22.7178 14.0242C22.3732 15.2975 22.0008 16.5651 21.7058 17.8502C21.4625 18.9102 21.2766 19.9871 21.1314 21.0652C20.9595 22.3413 20.7937 23.6244 20.74 24.9092C20.6186 27.8174 20.5673 30.7287 20.4887 33.6386C20.4829 33.8528 20.4643 34.0707 20.7908 34.0747C21.1159 34.0787 21.0992 33.8668 21.1027 33.6483C21.1179 32.6207 21.1113 31.5923 21.1575 30.5664C21.2602 28.291 21.3652 26.0151 21.5187 23.7428C21.5991 22.5529 21.7755 21.3691 21.9262 20.1849C21.9772 19.7832 22.0768 19.3876 22.1632 18.991C22.3356 18.1986 22.4997 17.4041 22.6946 16.6173C22.8478 15.998 23.0371 15.3873 23.2191 14.7751C23.3525 14.3267 23.5 13.8826 23.6463 13.4201L23.646 13.4198ZM17.08 24.2641C17.1003 24.2302 17.1207 24.1967 17.1411 24.1629C16.7787 23.7268 16.4166 23.2904 16.0028 22.7923C15.769 23.1355 15.5888 23.3859 15.4241 23.6459C15.2528 23.9166 15.3148 24.0344 15.6358 24.0877C15.9822 24.1454 16.3271 24.211 16.6742 24.2609C16.8068 24.2798 16.9445 24.2641 17.0797 24.2641H17.08ZM23.0159 24.1459C23.0423 24.1935 23.0687 24.2411 23.0954 24.2887C23.6302 24.2087 24.1665 24.1362 24.6973 24.0353C24.7424 24.0267 24.8058 23.8025 24.7673 23.7245C24.6462 23.4796 24.4922 23.2477 24.3246 23.0306C24.2752 22.9667 24.0816 22.9168 24.0517 22.9498C23.6956 23.3388 23.3582 23.7445 23.0159 24.1459ZM5.09442 11.4418C5.92106 11.2617 6.73249 11.4005 7.52182 11.5817C8.64457 11.8397 9.4933 12.5542 10.1311 13.4904C10.6918 14.3132 11.1317 15.1937 11.3423 16.1912C11.5675 17.2581 11.8633 18.2995 11.5325 19.4019C11.3661 19.9561 11.1581 20.4674 10.6797 20.8146C9.94435 21.3484 9.23995 21.1145 8.87641 20.2795C8.61272 19.6743 8.85776 19.1361 9.04398 18.6071C9.3441 17.7541 9.89386 17.0462 10.5107 16.3888C10.5965 16.2973 10.6565 16.0989 10.6186 15.988C10.3377 15.1697 9.99141 14.3927 9.45199 13.6896C8.66007 12.6577 7.61106 12.2254 6.3678 12.121C6.09206 12.0978 5.93339 12.2176 5.79223 12.4355C4.69903 14.1234 4.14928 15.9971 3.97712 17.9758C3.8635 19.2792 4.06923 20.5625 4.51167 21.8043C5.20603 23.7534 6.44728 25.0778 8.53382 25.5626C10.4445 26.0067 12.5408 25.2742 13.7229 23.7055C14.7688 22.3178 15.1894 20.7314 15.2634 19.0418C15.2947 18.3261 15.1544 17.6042 15.1237 16.884C15.0557 15.295 14.5392 13.851 13.6936 12.5261C12.7677 11.0753 11.4372 10.1246 9.75699 9.79571C8.15421 9.48204 6.55373 9.63802 5.06687 10.3772C4.489 10.6645 3.91572 11.0062 3.56366 11.6708C4.12001 11.5897 4.6141 11.5461 5.09499 11.4415L5.09442 11.4418ZM35.0488 10.3562C34.1831 9.90983 33.2455 9.76159 32.2794 9.69364C31.0708 9.60877 29.926 9.78338 28.8497 10.3451C26.8983 11.3635 25.8439 13.0798 25.2915 15.1169C24.9297 16.4504 24.8207 17.8367 24.8979 19.2261C24.9791 20.6867 25.3139 22.0595 26.1423 23.3047C27.3485 25.1179 29.5088 26.1102 31.7064 25.5411C33.5413 25.066 34.7644 23.9564 35.4889 22.2456C35.9736 21.101 36.1724 19.891 36.1311 18.6627C36.0987 17.6962 35.9813 16.7242 35.8017 15.7735C35.6037 14.727 35.128 13.7679 34.6221 12.8323C34.3401 12.3105 33.9826 11.9791 33.3126 12.1425C32.5517 12.3283 31.8352 12.5711 31.2407 13.1087C30.3762 13.8903 29.8735 14.8872 29.5163 15.9685C29.4778 16.0849 29.5475 16.2761 29.6296 16.3862C29.9033 16.7529 30.2255 17.0841 30.493 17.4548C31.068 18.2513 31.4438 19.1192 31.3024 20.1336C31.2814 20.283 31.2266 20.443 31.1408 20.5654C30.7566 21.1145 30.0973 21.2968 29.4652 20.8169C28.7777 20.295 28.5528 19.5295 28.5008 18.7404C28.4601 18.1214 28.5766 17.4878 28.6609 16.8656C28.8176 15.7061 29.2442 14.6498 29.8827 13.6644C31.0823 11.8119 32.9605 11.1639 35.066 11.4538C35.5544 11.5212 36.0416 11.5963 36.6292 11.6826C36.1954 11.0312 35.6427 10.6619 35.0494 10.3557L35.0488 10.3562Z" fill="#113393"/>
<path d="M19.7056 31.8661C19.7056 32.4719 19.7025 33.0778 19.7074 33.6836C19.7091 33.8978 19.7036 34.0709 19.4092 34.0778C19.0991 34.085 19.0778 33.9072 19.0712 33.6733C19.0101 31.4896 18.9585 29.3054 18.8744 27.1223C18.8259 25.8605 18.7668 24.5961 18.6337 23.3411C18.4942 22.0262 18.3272 20.707 18.0515 19.4154C17.6607 17.5847 17.1603 15.7775 16.7029 13.9614C16.6811 13.8748 16.5965 13.8003 16.5873 13.7151C16.5747 13.5999 16.5873 13.3854 16.6232 13.3779C16.783 13.3447 16.9715 13.3298 17.117 13.3888C17.2088 13.4261 17.2653 13.599 17.2992 13.7217C17.5781 14.7301 17.8684 15.7359 18.1149 16.7523C18.3889 17.8829 18.677 19.0145 18.8555 20.162C19.0649 21.5067 19.2018 22.866 19.2996 24.2239C19.4227 25.9293 19.4672 27.6404 19.5596 29.3481C19.6049 30.1871 19.6827 31.0243 19.7455 31.8621C19.732 31.8632 19.7186 31.8644 19.7051 31.8658L19.7056 31.8661ZM22.9149 13.5144C22.8317 13.6756 22.7654 13.849 22.7181 14.0242C22.3735 15.2975 22.0011 16.5651 21.7061 17.8502C21.4628 18.9102 21.2769 19.9871 21.1317 21.0651C20.9598 22.3413 20.794 23.6244 20.7403 24.9092C20.6189 27.8173 20.5676 30.7287 20.489 33.6386C20.4832 33.8528 20.4646 34.0707 20.7911 34.0747C21.1162 34.0787 21.0995 33.8668 21.103 33.6483C21.1182 32.6207 21.1116 31.5923 21.1578 30.5664C21.2605 28.291 21.3655 26.015 21.519 23.7428C21.5994 22.5529 21.7758 21.3691 21.9265 20.1849C21.9775 19.7832 22.0771 19.3876 22.1635 18.991C22.3359 18.1985 22.5 17.404 22.6949 16.6173C22.8481 15.998 23.0374 15.3873 23.2194 14.7751C23.3528 14.3267 23.5003 13.8826 23.6466 13.4201C23.364 13.3186 23.1006 13.1563 22.9152 13.5147L22.9149 13.5144ZM17.1414 24.1628C16.779 23.7267 16.4169 23.2904 16.0031 22.7923C15.7693 23.1355 15.5891 23.3858 15.4244 23.6459C15.2531 23.9165 15.3151 24.0344 15.6362 24.0877C15.9825 24.1453 16.3274 24.211 16.6745 24.2609C16.8071 24.2798 16.9448 24.264 17.08 24.264C17.1003 24.2302 17.1207 24.1967 17.1411 24.1628H17.1414ZM23.0954 24.2887C23.6302 24.2087 24.1665 24.1362 24.6973 24.0352C24.7424 24.0266 24.8058 23.8024 24.7673 23.7244C24.6463 23.4796 24.4922 23.2476 24.3246 23.0306C24.2753 22.9667 24.0816 22.9168 24.0517 22.9497C23.6957 23.3388 23.3582 23.7445 23.0159 24.1459C23.0423 24.1935 23.0687 24.2411 23.0954 24.2887Z" fill="#FFED00"/>
</g>
<defs>
<clipPath id="clip0_1508_26">
<rect width="40" height="40" fill="white"/>
</clipPath>
</defs>
</svg>
