<svg width="75" height="75" viewBox="0 0 75 75" fill="none" xmlns="http://www.w3.org/2000/svg">
<g clip-path="url(#clip0_6_498)">
<path d="M37.565 0C58.2663 0.185471 75.0053 16.666 75.0005 37.5726C74.9956 58.2706 58.2206 75.0215 37.437 75C16.7895 74.978 -0.10392 58.2281 -8.84843e-05 37.3403C0.103205 16.695 16.7206 0.11397 37.565 0ZM37.5021 1.41388C17.7563 1.23755 1.35672 17.674 1.35349 37.4973C1.34973 57.3308 17.6707 73.6544 37.4709 73.6598C57.3835 73.6657 73.6463 57.3265 73.6679 37.5564C73.6899 17.7251 57.3679 1.27679 37.5015 1.41441L37.5021 1.41388Z" fill="#113393"/>
<path d="M37.5016 1.41388C57.368 1.27626 73.69 17.7245 73.668 37.5559C73.6464 57.326 57.3836 73.6651 37.471 73.6592C17.6708 73.6533 1.34981 57.3298 1.35358 37.4968C1.35681 17.674 17.7563 1.23755 37.5016 1.41388ZM18.3137 16.7843C18.3471 16.8558 18.3809 16.9267 18.4143 16.9982C18.5284 17.038 18.6392 17.0907 18.7565 17.116C20.8234 17.5584 22.6488 18.51 24.2117 19.8996C27.9749 23.2467 29.3436 27.7077 29.7804 32.51C30.0117 35.0555 29.9854 37.6382 29.0966 40.0998C28.6097 41.4476 28.0863 42.7926 27.4332 44.0646C27.0942 44.7247 26.8844 45.2107 27.431 45.822C27.6548 46.0725 27.8087 46.401 27.9394 46.7165C28.698 48.5465 29.4856 50.3668 30.1726 52.2237C30.6396 53.4849 31.0016 54.7896 31.3309 56.0944C31.6499 57.3577 31.8726 58.6458 32.1287 59.9253C32.5053 61.8047 32.904 63.6809 33.2375 65.5684C33.5237 67.1866 34.406 68.2295 35.8414 68.3247C37.0443 68.4042 38.2672 68.437 39.4621 68.3101C40.466 68.2032 41.4128 67.6908 41.7318 66.656C42.0987 65.4657 42.2806 64.2169 42.5189 62.989C42.818 61.4493 43.0155 59.8849 43.3969 58.3668C43.9215 56.2804 44.5762 54.2262 45.1787 52.1592C45.8545 49.841 46.7884 47.6347 47.9628 45.522C48.1253 45.2295 48.1162 44.6667 47.9375 44.3871C46.5947 42.2857 45.8152 39.9654 45.6285 37.5285C45.3229 33.5315 45.4493 29.5549 47.0246 25.7455C48.6579 21.7947 51.279 18.8933 55.3779 17.452C55.8933 17.2708 56.4152 17.1068 56.9806 16.9192C56.8493 16.7397 56.7891 16.5623 56.675 16.516C55.6319 16.0924 54.6027 15.6118 53.5251 15.3021C51.6545 14.7651 49.7161 14.7274 47.7966 14.928C45.6549 15.1516 43.7229 15.9467 42.0821 17.3875C40.9561 18.3766 40.0705 19.5314 39.4534 20.9033C39.1 21.6898 36.6199 21.9732 36.0512 21.3189C35.9716 21.2275 35.9038 21.1211 35.8538 21.0103C34.2968 17.5509 31.5714 15.5505 27.8904 14.9774C25.0014 14.5275 22.1447 14.9253 19.4333 16.0897C19.0341 16.2612 18.6849 16.5499 18.3126 16.7843H18.3137ZM6.68021 21.8839C7.72337 21.7318 8.64979 21.6501 9.55146 21.4538C11.1014 21.1162 12.6228 21.3764 14.1029 21.7162C16.208 22.2 17.7994 23.5397 18.9953 25.295C20.0466 26.8379 20.8713 28.4888 21.2662 30.3591C21.6885 32.3595 22.2432 34.312 21.6229 36.3791C21.3108 37.4183 20.9208 38.3768 20.024 39.0278C18.6451 40.0288 17.3243 39.5902 16.6427 38.0247C16.1483 36.8898 16.6077 35.8808 16.9569 34.8889C17.5196 33.2895 18.5504 31.9622 19.7071 30.7295C19.8679 30.558 19.9804 30.186 19.9094 29.978C19.3827 28.4437 18.7333 26.9868 17.7219 25.6686C16.2371 23.7338 14.2702 22.9231 11.9391 22.7274C11.422 22.6839 11.1245 22.9086 10.8599 23.3171C8.81011 26.482 7.77932 29.9952 7.45653 33.7051C7.24349 36.149 7.62922 38.5553 8.4588 40.8836C9.76074 44.5382 12.0881 47.0214 16.0003 47.9304C19.5828 48.7632 23.5134 47.3896 25.7299 44.4484C27.6909 41.8465 28.4795 38.8719 28.6183 35.7039C28.677 34.362 28.4139 33.0084 28.3563 31.6579C28.2288 28.6786 27.2605 25.9713 25.675 23.487C23.9389 20.7668 21.4443 18.9841 18.2938 18.3675C15.2886 17.7794 12.2877 18.0718 9.49981 19.4577C8.4163 19.9964 7.3414 20.6372 6.68129 21.8834L6.68021 21.8839ZM68.6786 21.906C67.8652 20.6845 66.829 19.9921 65.7165 19.418C64.0934 18.5809 62.3352 18.303 60.5238 18.1756C58.2578 18.0164 56.1112 18.3438 54.0932 19.397C50.4344 21.3065 48.4572 24.5246 47.4216 28.3442C46.7432 30.8446 46.5388 33.4438 46.6835 36.049C46.8357 38.7875 47.4636 41.3615 49.0168 43.6963C51.2785 47.0961 55.329 48.9567 59.4494 47.8896C62.8899 46.9988 65.1833 44.9183 66.5418 41.7104C67.4504 39.5644 67.8232 37.2957 67.7458 34.9926C67.685 33.1804 67.4649 31.358 67.1282 29.5753C66.757 27.6131 65.865 25.8148 64.9165 24.0606C64.3876 23.0822 63.7173 22.4608 62.4611 22.7672C61.0344 23.1155 59.691 23.5709 58.5763 24.5789C56.9553 26.0444 56.0128 27.9136 55.343 29.9409C55.2709 30.1591 55.4016 30.5177 55.5555 30.7241C56.0687 31.4117 56.6729 32.0326 57.1743 32.7278C58.2524 34.2212 58.9572 35.8485 58.6919 37.7505C58.6527 38.0306 58.5499 38.3306 58.3891 38.5601C57.6687 39.5896 56.4324 39.9315 55.2472 39.0316C53.9582 38.0532 53.5364 36.6178 53.439 35.1383C53.3626 33.9777 53.5811 32.7896 53.7392 31.623C54.033 29.449 54.833 27.4685 56.03 25.6207C58.2793 22.1473 61.801 20.9324 65.7488 21.4759C66.6644 21.6022 67.5779 21.7431 68.6797 21.9049L68.6786 21.906Z" fill="#FFED00"/>
<path d="M18.3137 16.7843C18.686 16.5499 19.0351 16.2612 19.4343 16.0897C22.1458 14.9253 25.0025 14.5269 27.8915 14.9774C31.5724 15.551 34.2979 17.5514 35.8548 21.0103C35.9043 21.1205 35.9726 21.2275 36.0523 21.3189C36.6209 21.9726 39.101 21.6893 39.4545 20.9033C40.0716 19.5314 40.9566 18.3761 42.0831 17.3875C43.724 15.9467 45.6559 15.1521 47.7976 14.928C49.7177 14.7274 51.6556 14.7651 53.5261 15.3021C54.6037 15.6118 55.6335 16.0924 56.6761 16.516C56.7896 16.5623 56.8504 16.7397 56.9817 16.9192C56.4157 17.1068 55.8944 17.2708 55.379 17.452C51.28 18.8933 48.659 21.7947 47.0256 25.7455C45.4509 29.5554 45.324 33.5315 45.6295 37.5285C45.8162 39.9654 46.5958 42.2857 47.9386 44.3871C48.1172 44.6662 48.1264 45.229 47.9639 45.522C46.7895 47.6348 45.8555 49.8411 45.1798 52.1592C44.5772 54.2262 43.9225 56.2798 43.398 58.3668C43.016 59.885 42.8191 61.4494 42.52 62.989C42.2816 64.2169 42.0998 65.4657 41.7329 66.656C41.4139 67.6909 40.467 68.2032 39.4631 68.3102C38.2682 68.4376 37.0454 68.4042 35.8424 68.3247C34.4071 68.2301 33.5248 67.1866 33.2386 65.5684C32.905 63.6809 32.5064 61.8052 32.1298 59.9253C31.8737 58.6463 31.651 57.3583 31.3319 56.0944C31.0022 54.7891 30.6401 53.4843 30.1737 52.2237C29.4861 50.3668 28.699 48.5465 27.9405 46.7165C27.8097 46.401 27.6564 46.072 27.4321 45.822C26.8855 45.2107 27.0953 44.7248 27.4342 44.0646C28.0868 42.7932 28.6108 41.4476 29.0977 40.0998C29.9864 37.6387 30.0128 35.0556 29.7815 32.51C29.3452 27.7082 27.9765 23.2467 24.2127 19.8996C22.6499 18.51 20.8245 17.5584 18.7575 17.116C18.6402 17.0907 18.5294 17.038 18.4154 16.9982C18.382 16.9267 18.3481 16.8558 18.3148 16.7843H18.3137ZM36.9475 59.7489C36.9728 59.7468 36.998 59.7446 37.0233 59.742C36.905 58.1706 36.7597 56.6013 36.6747 55.0283C36.5009 51.8264 36.4176 48.618 36.1873 45.4204C36.0038 42.8743 35.7472 40.3256 35.3545 37.8043C35.0193 35.6528 34.4797 33.5309 33.9659 31.4112C33.5038 29.5054 32.9594 27.6195 32.4364 25.7288C32.373 25.4987 32.2664 25.1745 32.0948 25.1047C31.8221 24.9939 31.4686 25.0219 31.1689 25.0842C31.1017 25.0982 31.078 25.5003 31.1017 25.7164C31.1189 25.8761 31.2776 26.0159 31.3185 26.1782C32.1761 29.5839 33.1143 32.9724 33.847 36.4044C34.3641 38.8263 34.6766 41.2997 34.9386 43.7651C35.1883 46.1182 35.2991 48.489 35.39 50.855C35.5471 54.9482 35.6445 59.0431 35.7591 63.1379C35.7714 63.5761 35.8112 63.9099 36.3928 63.8965C36.9448 63.8836 36.955 63.5589 36.9518 63.1573C36.9432 62.0214 36.9486 60.8854 36.9486 59.7495L36.9475 59.7489ZM44.3362 25.1622C43.8063 24.9719 43.3124 24.6676 42.9649 25.3396C42.8089 25.6417 42.6846 25.967 42.5958 26.2954C41.9497 28.6829 41.2514 31.0596 40.6983 33.4691C40.2421 35.4566 39.8935 37.4758 39.6213 39.4972C39.299 41.89 38.9881 44.2958 38.8875 46.7047C38.6599 52.1576 38.5636 57.6163 38.4162 63.0724C38.4054 63.4739 38.3705 63.8825 38.9827 63.89C39.5922 63.8976 39.561 63.5003 39.5675 63.0906C39.596 61.1639 39.5836 59.2355 39.6702 57.312C39.8628 53.0457 40.0597 48.7782 40.3476 44.5178C40.4982 42.2868 40.8291 40.067 41.1115 37.8468C41.2073 37.0936 41.394 36.3517 41.5559 35.6082C41.8792 34.1223 42.187 32.6326 42.5522 31.1574C42.8395 29.9962 43.1946 28.8512 43.5357 27.7034C43.7859 26.8626 44.0624 26.0299 44.3368 25.1627L44.3362 25.1622ZM32.0249 45.4951C32.0631 45.4317 32.1013 45.3688 32.1395 45.3054C31.46 44.4877 30.781 43.6695 30.0053 42.7356C29.5668 43.3792 29.2289 43.8485 28.9201 44.3361C28.599 44.8436 28.7152 45.0645 29.3172 45.1645C29.9665 45.2726 30.6132 45.3957 31.2642 45.4892C31.5127 45.5247 31.7709 45.4951 32.0243 45.4951H32.0249ZM43.1548 45.2736C43.2043 45.3629 43.2538 45.4521 43.3038 45.5414C44.3066 45.3914 45.3121 45.2554 46.3074 45.0661C46.3919 45.05 46.5108 44.6296 46.4387 44.4834C46.2117 44.0243 45.9228 43.5893 45.6086 43.1824C45.516 43.0625 45.1529 42.969 45.0969 43.0308C44.4293 43.7603 43.7966 44.521 43.1548 45.2736ZM9.552 21.4533C11.1019 21.1157 12.6234 21.3759 14.1034 21.7156C16.2085 22.1995 17.7999 23.5392 18.9959 25.2944C20.0471 26.8373 20.8718 28.4883 21.2667 30.3586C21.689 32.359 22.2437 34.3115 21.6234 36.3786C21.3114 37.4177 20.9213 38.3763 20.0245 39.0273C18.6456 40.0283 17.3249 39.5896 16.6432 38.0242C16.1488 36.8893 16.6083 35.8802 16.9574 34.8884C17.5202 33.289 18.5509 31.9617 19.7076 30.729C19.8685 30.5575 19.9809 30.1855 19.9099 29.9774C19.3832 28.4431 18.7339 26.9862 17.7224 25.6681C16.2376 23.7332 14.2707 22.9225 11.9396 22.7269C11.4226 22.6833 11.1251 22.908 10.8604 23.3166C8.81065 26.4814 7.77986 29.9946 7.45707 33.7046C7.24402 36.1485 7.62976 38.5548 8.45934 40.8831C9.76127 44.5377 12.0886 47.0208 16.0009 47.9299C19.5833 48.7626 23.5139 47.3891 25.7304 44.4479C27.6914 41.8459 28.4801 38.8714 28.6189 35.7034C28.6775 34.3615 28.4144 33.0078 28.3569 31.6574C28.2294 28.6781 27.261 25.9707 25.6755 23.4865C23.9394 20.7663 21.4448 18.9836 18.2943 18.367C15.2891 17.7788 12.2882 18.0713 9.50035 19.4572C8.41684 19.9959 7.34194 20.6367 6.68182 21.8828C7.72498 21.7307 8.6514 21.649 9.55307 21.4528L9.552 21.4533ZM65.7165 19.418C64.0933 18.5809 62.3352 18.303 60.5238 18.1756C58.2578 18.0164 56.1112 18.3438 54.0932 19.397C50.4343 21.3065 48.4572 24.5246 47.4216 28.3442C46.7432 30.8446 46.5387 33.4438 46.6835 36.049C46.8357 38.7875 47.4636 41.3616 49.0167 43.6963C51.2784 47.0961 55.329 48.9567 59.4494 47.8896C62.8899 46.9988 65.1833 44.9183 66.5417 41.7105C67.4504 39.5644 67.8232 37.2957 67.7457 34.9927C67.685 33.1804 67.4649 31.358 67.1281 29.5753C66.7569 27.6131 65.8649 25.8148 64.9165 24.0606C64.3876 23.0822 63.7173 22.4608 62.4611 22.7672C61.0343 23.1155 59.691 23.5709 58.5763 24.5789C56.9553 26.0444 56.0127 27.9136 55.3429 29.9409C55.2708 30.1591 55.4016 30.5177 55.5554 30.7241C56.0687 31.4117 56.6728 32.0327 57.1743 32.7278C58.2524 34.2212 58.9571 35.8485 58.6919 37.7505C58.6526 38.0306 58.5499 38.3306 58.389 38.5601C57.6687 39.5896 56.4324 39.9315 55.2472 39.0316C53.9582 38.0532 53.5364 36.6178 53.439 35.1383C53.3626 33.9777 53.581 32.7896 53.7392 31.623C54.0329 29.449 54.8329 27.4685 56.03 25.6207C58.2793 22.1473 61.801 20.9324 65.7487 21.4759C66.6644 21.6022 67.5779 21.7431 68.6797 21.9049C67.8663 20.6835 66.8301 19.991 65.7175 19.4169L65.7165 19.418Z" fill="#113393"/>
<path d="M36.948 59.749C36.948 60.8849 36.9421 62.0208 36.9513 63.1568C36.9545 63.5584 36.9443 63.8831 36.3923 63.896C35.8107 63.9094 35.7709 63.5761 35.7585 63.1374C35.6439 59.0431 35.5471 54.9477 35.3895 50.8544C35.2985 48.4885 35.1877 46.1177 34.9381 43.7646C34.6766 41.2992 34.3635 38.8257 33.8465 36.4038C33.1138 32.9713 32.1755 29.5828 31.318 26.1777C31.2771 26.0153 31.1184 25.8756 31.1012 25.7159C31.0775 25.4998 31.1012 25.0977 31.1684 25.0837C31.4681 25.0213 31.8215 24.9934 32.0943 25.1041C32.2664 25.174 32.3724 25.4982 32.4359 25.7283C32.9588 27.619 33.5033 29.5049 33.9654 31.4107C34.4792 33.5304 35.0193 35.6523 35.354 37.8038C35.7467 40.3251 36.0033 42.8738 36.1868 45.4199C36.4176 48.6175 36.501 51.8259 36.6742 55.0278C36.7592 56.6008 36.905 58.1706 37.0228 59.7414C36.9975 59.7436 36.9722 59.7457 36.9469 59.7484L36.948 59.749ZM42.9654 25.3396C42.8094 25.6417 42.6851 25.967 42.5964 26.2954C41.9502 28.6829 41.2519 31.0596 40.6989 33.4691C40.2427 35.4566 39.8941 37.4758 39.6218 39.4972C39.2996 41.89 38.9886 44.2958 38.888 46.7047C38.6604 52.1576 38.5641 57.6163 38.4167 63.0724C38.406 63.4739 38.371 63.8825 38.9832 63.89C39.5928 63.8976 39.5616 63.5003 39.568 63.0906C39.5965 61.1639 39.5842 59.2355 39.6708 57.312C39.8634 53.0457 40.0603 48.7782 40.3481 44.5178C40.4988 42.2868 40.8296 40.067 41.1121 37.8468C41.2078 37.0936 41.3945 36.3517 41.5564 35.6082C41.8798 34.1223 42.1875 32.6326 42.5528 31.1575C42.8401 29.9962 43.1952 28.8512 43.5362 27.7034C43.7864 26.8626 44.0629 26.0299 44.3373 25.1627C43.8074 24.9724 43.3135 24.6681 42.966 25.3401L42.9654 25.3396ZM32.14 45.3054C31.4605 44.4877 30.7816 43.6695 30.0058 42.7357C29.5673 43.3792 29.2295 43.8485 28.9207 44.3361C28.5995 44.8436 28.7157 45.0645 29.3177 45.1645C29.9671 45.2726 30.6137 45.3957 31.2647 45.4892C31.5133 45.5247 31.7715 45.4951 32.0249 45.4951C32.0631 45.4317 32.1013 45.3688 32.1395 45.3054H32.14ZM43.3038 45.5414C44.3066 45.3914 45.3121 45.2554 46.3074 45.0661C46.3919 45.05 46.5108 44.6296 46.4387 44.4834C46.2117 44.0243 45.9228 43.5894 45.6086 43.1824C45.516 43.0625 45.1529 42.969 45.0969 43.0308C44.4293 43.7603 43.7966 44.521 43.1548 45.2736C43.2043 45.3629 43.2538 45.4521 43.3038 45.5414Z" fill="#FFED00"/>
</g>
<defs>
<clipPath id="clip0_6_498">
<rect width="75" height="75" fill="white"/>
</clipPath>
</defs>
</svg>
