<svg width="40" height="40" viewBox="0 0 40 40" fill="none" xmlns="http://www.w3.org/2000/svg">
<rect y="0.275991" width="40" height="39.5622" rx="19.7811" fill="#F6F6F6"/>
<path d="M20.011 21.8569C23.1235 21.8569 25.636 19.3444 25.636 16.2319C25.636 13.1194 23.1235 10.6069 20.011 10.6069C16.8985 10.6069 14.386 13.1194 14.386 16.2319C14.386 19.3444 16.8985 21.8569 20.011 21.8569ZM20.011 12.2944C22.186 12.2944 23.9485 14.0569 23.9485 16.2319C23.9485 18.4069 22.186 20.1694 20.011 20.1694C17.836 20.1694 16.0735 18.4069 16.0735 16.2319C16.0735 14.0569 17.836 12.2944 20.011 12.2944Z" fill="#113393"/>
<path d="M31.0735 28.0069C27.9985 25.4194 24.0985 23.9944 20.011 23.9944C15.9235 23.9944 12.0235 25.4194 8.94851 28.0069C8.61101 28.3069 8.53601 28.8319 8.83601 29.2069C9.13601 29.5444 9.66101 29.6194 10.036 29.3194C12.811 26.9569 16.336 25.6819 20.011 25.6819C23.686 25.6819 27.211 26.9569 29.9485 29.2819C30.0985 29.4319 30.286 29.4694 30.511 29.4694C30.736 29.4694 30.9985 29.3569 31.1485 29.1694C31.4485 28.8319 31.411 28.3069 31.0735 28.0069Z" fill="#113393"/>
</svg>
