<svg width="20" height="20" viewBox="0 0 20 20" fill="none" xmlns="http://www.w3.org/2000/svg">
<path d="M18.0677 20H13.7407C12.6837 20 11.7919 19.1412 11.7919 18.0512V14.55C11.7919 14.2857 11.5937 14.0875 11.3295 14.0875H8.68704C8.42279 14.0875 8.22461 14.2857 8.22461 14.55V18.0512C8.22461 19.1412 7.36582 20 6.27581 20H1.9488C0.891825 20 0 19.1412 0 18.0512V6.9199C0 6.35838 0.264245 5.86292 0.726672 5.56565L9.14946 0.247729C9.67795 -0.0825764 10.3386 -0.0825764 10.834 0.247729L19.2568 5.59868C19.7192 5.89595 19.9835 6.39141 19.9835 6.95293V18.0512C20.0165 19.1082 19.1247 20 18.0677 20ZM8.68704 12.6012H11.3295C12.4195 12.6012 13.2783 13.4599 13.2783 14.55V18.0512C13.2783 18.3154 13.4765 18.5136 13.7407 18.5136H18.0677C18.332 18.5136 18.5301 18.3154 18.5301 18.0512V6.9199C18.5301 6.88687 18.4971 6.85384 18.4971 6.82081L10.0413 1.50289C10.0083 1.46986 9.97523 1.46986 9.9422 1.50289L1.55244 6.82081C1.51941 6.85384 1.48638 6.88687 1.48638 6.9199V18.0512C1.48638 18.3154 1.68456 18.5136 1.9488 18.5136H6.27581C6.54005 18.5136 6.73823 18.3154 6.73823 18.0512V14.55C6.73823 13.493 7.59703 12.6012 8.68704 12.6012Z" fill="#113393"/>
</svg>
