<svg width="20" height="20" viewBox="0 0 20 20" fill="none" xmlns="http://www.w3.org/2000/svg">
<g opacity="0.5">
<path d="M8.87593 13.5086C9.27336 13.5086 9.63767 13.1775 9.63767 12.7469V7.77904C9.63767 5.9906 11.0949 4.53336 12.8833 4.53336H16.8245L14.9036 6.35492C14.6055 6.65299 14.6055 7.11666 14.8705 7.41473C15.003 7.58032 15.2017 7.64656 15.4004 7.64656C15.5991 7.64656 15.7647 7.58032 15.8972 7.44785L18.9441 4.56648C19.1429 4.36777 19.2753 4.0697 19.2753 3.77162C19.2753 3.47355 19.1429 3.2086 18.9441 3.00988L15.8972 0.194758C15.5991 -0.0701954 15.1354 -0.0701954 14.8374 0.227877C14.5724 0.525949 14.5724 0.989617 14.8705 1.28769L16.7914 3.07612H12.8171C10.2007 3.07612 8.08107 5.19575 8.08107 7.81216V12.78C8.14731 13.1775 8.4785 13.5086 8.87593 13.5086Z" fill="#939393"/>
<path d="M18.6461 12.0183C18.2486 12.0183 17.8843 12.3495 17.8843 12.78V17.5823C17.8843 18.1122 17.4538 18.5428 16.9239 18.5428H2.48393C1.95403 18.5428 1.52348 18.1122 1.52348 17.5823V12.7469C1.52348 12.3495 1.19229 11.9852 0.76174 11.9852C0.331191 11.9852 0 12.3164 0 12.7469V17.5492C0 18.9071 1.09293 20 2.45082 20H16.9239C18.2818 20 19.3747 18.9071 19.3747 17.5492V12.7469C19.4078 12.3495 19.0766 12.0183 18.6461 12.0183Z" fill="#939393"/>
</g>
</svg>
