<svg width="19" height="20" viewBox="0 0 19 20" fill="none" xmlns="http://www.w3.org/2000/svg">
<g opacity="0.5">
<path d="M12.8571 17.9857L11.0071 16.1357L10 17.1429L12.8571 20L18.5714 14.2857L17.5643 13.2786L12.8571 17.9857ZM3.57143 10.7143H8.57143V12.1429H3.57143V10.7143ZM3.57143 7.14286H12.1429V8.57143H3.57143V7.14286ZM3.57143 3.57143H12.1429V5H3.57143V3.57143Z" fill="#939393"/>
<path d="M8.57143 20H1.42857C0.640714 20 0 19.3593 0 18.5714V1.42857C0 0.640714 0.640714 0 1.42857 0H14.2857C15.0736 0 15.7143 0.640714 15.7143 1.42857V12.1429H14.2857V1.42857H1.42857V18.5714H8.57143V20Z" fill="#939393"/>
</g>
</svg>
