<svg width="17" height="20" viewBox="0 0 17 20" fill="none" xmlns="http://www.w3.org/2000/svg">
<path opacity="0.5" d="M15.3579 12.2549L15.0931 12.1225L15.4241 11.9239C16.0861 11.5267 16.4501 10.8316 16.4501 10.0372C16.4501 9.27596 16.0199 8.58089 15.3579 8.1837L14.6628 7.78651L15.4241 7.32313C16.0861 6.92594 16.4501 6.23087 16.4501 5.43649C16.4501 4.67522 16.0199 3.98014 15.3579 3.61605L9.36699 0.273066C8.70501 -0.0910219 7.87753 -0.0910219 7.24866 0.273066L1.09226 3.84775C0.430285 4.24493 0.0330989 4.94001 0.0330989 5.70128C0.0330989 6.46256 0.430285 7.19073 1.09226 7.55482L1.82044 7.98511L1.09226 8.41539C0.430285 8.81258 0.0330989 9.50765 0.0330989 10.2689C0.0330989 11.0302 0.430285 11.7584 1.09226 12.1225L1.39015 12.288L1.09226 12.4535C0.430285 12.8506 0 13.5457 0 14.307C0 15.1014 0.397187 15.7964 1.05916 16.1605L7.14936 19.7021C7.48035 19.9007 7.84444 20 8.24162 20C8.63881 20 9.036 19.9007 9.36699 19.669L15.4572 15.9619C16.1192 15.5647 16.4832 14.8697 16.4832 14.0753C16.4501 13.314 16.053 12.6189 15.3579 12.2549ZM1.48945 5.70128C1.48945 5.60199 1.52255 5.3041 1.82044 5.1386L7.97683 1.56392C8.17543 1.43153 8.44022 1.43153 8.63881 1.56392L14.6628 4.90691C14.9607 5.0724 14.9938 5.37029 14.9938 5.46959C14.9938 5.56889 14.9607 5.86678 14.6628 6.06537L8.60571 9.80554C8.40712 9.93794 8.14233 9.93794 7.91063 9.80554L1.82044 6.26396C1.52255 6.09847 1.48945 5.80058 1.48945 5.70128ZM1.82044 9.70625L3.27679 8.84568L7.14936 11.0964C7.48035 11.295 7.84444 11.3943 8.24162 11.3943C8.63881 11.3943 9.036 11.295 9.36699 11.0633L13.2065 8.71328L14.6297 9.50766C14.9276 9.67315 14.9607 9.97104 14.9607 10.0703C14.9607 10.1696 14.9276 10.4675 14.6297 10.6661L8.60571 14.3732C8.40712 14.5056 8.14233 14.5056 7.91063 14.3732L1.82044 10.8316C1.52255 10.6661 1.48945 10.3682 1.48945 10.2689C1.48945 10.1696 1.52255 9.87174 1.82044 9.70625ZM14.6628 14.7042L8.60571 18.4444C8.40712 18.5767 8.14233 18.5767 7.91063 18.4444L1.82044 14.9028C1.52255 14.7373 1.48945 14.4394 1.48945 14.3401C1.48945 14.2408 1.52255 13.9429 1.82044 13.7774L2.8465 13.1816L7.18246 15.6971C7.51345 15.8957 7.87753 15.995 8.27472 15.995C8.67191 15.995 9.06909 15.8957 9.40008 15.664L13.6698 13.0492L14.6628 13.5788C14.9607 13.7443 14.9938 14.0422 14.9938 14.1415C14.9938 14.2408 14.9607 14.5387 14.6628 14.7042Z" fill="#939393"/>
</svg>
