<svg width="22" height="20" viewBox="0 0 22 20" fill="none" xmlns="http://www.w3.org/2000/svg">
<path opacity="0.5" d="M2.27866 20L10.1629 20C11.3926 20 12.4414 18.9873 12.4414 17.7215L12.4414 15.1537L19.6385 15.1537C20.8682 15.1537 21.917 14.141 21.917 12.8752L21.917 5.93128C21.917 5.49729 21.7362 5.06329 21.4107 4.73779L17.1069 0.506329C16.7814 0.18083 16.3474 4.86912e-07 15.9134 5.24853e-07L11.7542 8.88456e-07C10.5246 9.95956e-07 9.51193 1.01266 9.51193 2.27848L9.51193 7.16094L7.66744 5.31646C7.34195 4.99096 6.90795 4.81013 6.47395 4.81013L2.27866 4.81013C1.049 4.81013 0.000174237 5.82279 0.000174347 7.08861L0.00017528 17.7577C0.000175388 18.9873 1.049 20 2.27866 20ZM19.1322 4.84629L17.143 4.84629C17.1069 4.84629 17.0707 4.81013 17.0707 4.77396L17.0707 2.78481L19.1322 4.84629ZM11.1032 2.27848C11.1032 1.91682 11.3926 1.62749 11.7181 1.62749L15.4432 1.62749L15.4432 4.73779C15.4432 5.67812 16.2027 6.43761 17.143 6.43761L20.2533 6.43761L20.2533 12.9476C20.2533 13.3092 19.964 13.5986 19.6023 13.5986L11.1394 13.5986C11.1032 13.5986 11.0671 13.5624 11.0671 13.5262L11.0671 2.27848L11.1032 2.27848ZM9.47576 9.47559L9.47576 9.65642L7.66744 9.65642C7.63128 9.65642 7.59511 9.62025 7.59511 9.58409L7.59511 7.59494L9.47576 9.47559ZM1.62766 7.08861C1.62766 6.72695 1.91699 6.43761 2.27866 6.43761L6.00379 6.43761L6.00379 9.54792C6.00379 10.4882 6.76328 11.2477 7.70361 11.2477L9.51193 11.2477L9.51193 13.4901C9.51193 14.2857 10.0906 14.9729 10.8139 15.1175L10.8139 17.7215C10.8139 18.0832 10.5246 18.3725 10.1629 18.3725L2.27866 18.3725C1.91699 18.3725 1.62766 18.0832 1.62766 17.7215L1.62766 7.08861Z" fill="#939393"/>
</svg>
