<svg width="23" height="18" viewBox="0 0 23 18" fill="none" xmlns="http://www.w3.org/2000/svg">
<g opacity="0.5">
<path d="M10.8898 4.64033H4.56549C4.11643 4.64033 3.7422 5.01455 3.7422 5.46362C3.7422 5.91268 4.11643 6.2869 4.56549 6.2869H10.8524C11.3015 6.2869 11.6757 5.91268 11.6757 5.46362C11.6757 5.01455 11.3389 4.64033 10.8898 4.64033Z" fill="#939393"/>
<path d="M7.48441 9.28067H4.56549C4.11643 9.28067 3.7422 9.65489 3.7422 10.104C3.7422 10.553 4.11643 10.9272 4.56549 10.9272H7.44699C7.89605 10.9272 8.27027 10.553 8.27027 10.104C8.27027 9.65489 7.93347 9.28067 7.48441 9.28067Z" fill="#939393"/>
<path d="M17.5135 9.95426C17.4761 9.91684 17.4387 9.87942 17.3638 9.87942C17.3264 9.842 17.2516 9.842 17.2141 9.842C16.9522 9.80457 16.6528 9.87942 16.4657 10.0665C16.4283 10.1039 16.3909 10.1414 16.3534 10.1788C16.316 10.2162 16.2786 10.2911 16.2786 10.3285C16.2412 10.3659 16.2412 10.4407 16.2412 10.4782C16.2412 10.553 16.2037 10.5904 16.2037 10.6279C16.2037 10.7027 16.2037 10.7401 16.2412 10.7775C16.2412 10.8524 16.2786 10.8898 16.2786 10.9272C16.316 10.9647 16.316 11.0395 16.3534 11.0769C16.3909 11.1143 16.4283 11.1518 16.4657 11.1892C16.6154 11.3389 16.8399 11.4511 17.0645 11.4511C17.289 11.4511 17.5135 11.3763 17.6632 11.1892C17.7006 11.1518 17.738 11.1143 17.7755 11.0769C17.8129 11.0395 17.8129 11.0021 17.8503 10.9272C17.8877 10.8898 17.8877 10.815 17.8877 10.7775C17.8877 10.7401 17.8877 10.6653 17.8877 10.6279C17.8877 10.4033 17.8129 10.1788 17.6258 10.0291C17.5884 10.0291 17.5509 9.99168 17.5135 9.95426Z" fill="#939393"/>
<path d="M17.2516 2.99376C16.316 2.8815 15.4553 3.33056 15.0062 4.15385C14.7817 4.56549 14.9314 5.0894 15.343 5.27651C15.7547 5.50104 16.2786 5.35135 16.4657 4.93971C16.578 4.7526 16.8025 4.64033 17.027 4.67776C17.2516 4.71518 17.4761 4.90229 17.4761 5.0894C17.5135 5.35135 17.3638 5.50104 17.2141 5.57588C16.578 5.87526 16.1289 6.6237 16.1289 7.2973V7.78378C16.1289 8.23285 16.5031 8.60707 16.9522 8.60707C17.4012 8.60707 17.7755 8.23285 17.7755 7.78378V7.2973C17.7755 7.22245 17.8503 7.11019 17.9252 7.07277C18.7484 6.66112 19.2349 5.80042 19.1227 4.86487C19.0478 3.89189 18.2245 3.10603 17.2516 2.99376Z" fill="#939393"/>
<path d="M20.2827 0H2.32017C1.04782 0 0 1.04782 0 2.32017V16.4283C0 17.027 0.336798 17.5884 0.898129 17.8503C1.12266 17.9626 1.34719 18 1.57173 18C1.94595 18 2.28274 17.8877 2.58212 17.6258L5.76299 15.0062H20.2827C21.5551 15.0062 22.6029 13.9584 22.6029 12.6861V2.35759C22.6029 1.04782 21.5551 0 20.2827 0ZM20.9563 12.6861C20.9563 13.0603 20.657 13.3597 20.2827 13.3597H5.4262C5.23909 13.3597 5.05198 13.4345 4.90229 13.5468L1.68399 16.2037V2.35759C1.68399 1.98337 1.98337 1.68399 2.35759 1.68399H20.3202C20.6944 1.68399 20.9938 1.98337 20.9938 2.35759V12.6861H20.9563Z" fill="#939393"/>
</g>
</svg>
