<svg width="22" height="24" viewBox="0 0 22 24" fill="none" xmlns="http://www.w3.org/2000/svg">
<path opacity="0.5" d="M1 23H20.8M1 10.9C1 9.8627 1 9.3446 1.3223 9.0223C1.6446 8.7 2.1627 8.7 3.2 8.7C4.2373 8.7 4.7554 8.7 5.0777 9.0223C5.4 9.3446 5.4 9.8627 5.4 10.9V17.5C5.4 18.5373 5.4 19.0554 5.0777 19.3777C4.7554 19.7 4.2373 19.7 3.2 19.7C2.1627 19.7 1.6446 19.7 1.3223 19.3777C1 19.0554 1 18.5373 1 17.5V10.9ZM8.7 6.5C8.7 5.4627 8.7 4.9446 9.0223 4.6223C9.3446 4.3 9.8627 4.3 10.9 4.3C11.9373 4.3 12.4554 4.3 12.7777 4.6223C13.1 4.9446 13.1 5.4627 13.1 6.5V17.5C13.1 18.5373 13.1 19.0554 12.7777 19.3777C12.4554 19.7 11.9373 19.7 10.9 19.7C9.8627 19.7 9.3446 19.7 9.0223 19.3777C8.7 19.0554 8.7 18.5373 8.7 17.5V6.5ZM16.4 3.2C16.4 2.1627 16.4 1.6446 16.7223 1.3223C17.0446 1 17.5627 1 18.6 1C19.6373 1 20.1554 1 20.4777 1.3223C20.8 1.6446 20.8 2.1627 20.8 3.2V17.5C20.8 18.5373 20.8 19.0554 20.4777 19.3777C20.1554 19.7 19.6373 19.7 18.6 19.7C17.5627 19.7 17.0446 19.7 16.7223 19.3777C16.4 19.0554 16.4 18.5373 16.4 17.5V3.2Z" stroke="#939393" stroke-width="1.5" stroke-linecap="round"/>
</svg>
