<svg width="20" height="20" viewBox="0 0 20 20" fill="none" xmlns="http://www.w3.org/2000/svg">
<g opacity="0.5">
<path d="M11.2583 9.27152H8.90728C8.21192 9.27152 7.64901 8.74172 7.64901 8.07947C7.64901 7.41722 8.21192 6.88742 8.90728 6.88742H12.3179C12.7152 6.88742 13.0464 6.55629 13.0464 6.15894C13.0464 5.76159 12.7152 5.43046 12.3179 5.43046H10.7285V4.63576C10.7285 4.23841 10.3974 3.90728 10 3.90728C9.60265 3.90728 9.27152 4.23841 9.27152 4.63576V5.43046H8.90728C7.38411 5.43046 6.15894 6.62252 6.15894 8.11258C6.15894 9.60265 7.38411 10.7947 8.90728 10.7947H11.2583C11.9536 10.7947 12.5166 11.3245 12.5166 11.9868C12.5166 12.649 11.9536 13.1788 11.2583 13.1788H7.68212C7.28477 13.1788 6.95364 13.5099 6.95364 13.9073C6.95364 14.3046 7.28477 14.6358 7.68212 14.6358H9.27152V15.4305C9.27152 15.8278 9.60265 16.1589 10 16.1589C10.3974 16.1589 10.7285 15.8278 10.7285 15.4305V14.6358H11.2583C12.7815 14.6358 14.0066 13.4437 14.0066 11.9536C14.0397 10.4636 12.7815 9.27152 11.2583 9.27152Z" fill="#939393"/>
<path d="M10 0C4.4702 0 0 4.4702 0 10C0 15.5298 4.4702 20 10 20C15.5298 20 20 15.5298 20 10C20 4.4702 15.5298 0 10 0ZM10 18.543C5.29801 18.543 1.45695 14.702 1.45695 10C1.45695 5.29801 5.29801 1.45695 10 1.45695C14.702 1.45695 18.543 5.29801 18.543 10C18.543 14.702 14.702 18.543 10 18.543Z" fill="#939393"/>
</g>
</svg>
