<svg width="50" height="50" viewBox="0 0 50 50" fill="none" xmlns="http://www.w3.org/2000/svg">
<rect width="50" height="50.0043" rx="7" fill="#FFED00"/>
<path d="M30.3572 36.9807L27.5822 34.2057L26.0715 35.7165L30.3572 40.0022L38.9287 31.4307L37.418 29.92L30.3572 36.9807ZM16.4287 26.0736H23.9287V28.2165H16.4287V26.0736ZM16.4287 20.7165H29.2858V22.8593H16.4287V20.7165ZM16.4287 15.3593H29.2858V17.5022H16.4287V15.3593Z" fill="#113393"/>
<path d="M23.9287 40.0022H13.2144C12.0326 40.0022 11.0715 39.0411 11.0715 37.8593V12.145C11.0715 10.9632 12.0326 10.0022 13.2144 10.0022H32.5001C33.6819 10.0022 34.643 10.9632 34.643 12.145V28.2165H32.5001V12.145H13.2144V37.8593H23.9287V40.0022Z" fill="#113393"/>
</svg>
