<svg width="50" height="50" viewBox="0 0 50 50" fill="none" xmlns="http://www.w3.org/2000/svg">
<rect width="50" height="50.0043" rx="7" fill="#FFED00"/>
<path d="M11.98 40.0022L23.8064 40.0022C25.6509 40.0022 27.2241 38.4832 27.2241 36.5844L27.2241 32.7327L38.0198 32.7327C39.8643 32.7327 41.4375 31.2137 41.4375 29.315L41.4375 18.8991C41.4375 18.2481 41.1663 17.5971 40.678 17.1089L34.2223 10.7617C33.7341 10.2734 33.0831 10.0022 32.4321 10.0022L26.1934 10.0022C24.3489 10.0022 22.8299 11.5212 22.8299 13.4199L22.8299 20.7436L20.0632 17.9769C19.5749 17.4886 18.9239 17.2174 18.2729 17.2174L11.98 17.2174C10.1355 17.2174 8.56227 18.7363 8.56227 20.6351L8.56227 36.6387C8.56227 38.4832 10.1355 40.0022 11.98 40.0022ZM37.2603 17.2716L34.2766 17.2716C34.2223 17.2716 34.1681 17.2174 34.1681 17.1631L34.1681 14.1794L37.2603 17.2716ZM25.2169 13.4199C25.2169 12.8774 25.6509 12.4434 26.1391 12.4434L31.7268 12.4434L31.7268 17.1089C31.7268 18.5193 32.8661 19.6586 34.2766 19.6586L38.942 19.6586L38.942 29.4235C38.942 29.966 38.508 30.4 37.9655 30.4L25.2711 30.4C25.2169 30.4 25.1626 30.3457 25.1626 30.2915L25.1626 13.4199L25.2169 13.4199ZM22.7757 24.2155L22.7757 24.4868L20.0632 24.4868C20.0089 24.4868 19.9547 24.4325 19.9547 24.3783L19.9547 21.3946L22.7757 24.2155ZM11.0035 20.6351C11.0035 20.0926 11.4375 19.6586 11.98 19.6586L17.5677 19.6586L17.5677 24.324C17.5677 25.7345 18.7069 26.8738 20.1174 26.8738L22.8299 26.8738L22.8299 30.2372C22.8299 31.4307 23.6979 32.4615 24.7829 32.6785L24.7829 36.5844C24.7829 37.1269 24.3489 37.5609 23.8064 37.5609L11.98 37.5609C11.4375 37.5609 11.0035 37.1269 11.0035 36.5844L11.0035 20.6351Z" fill="#113393"/>
</svg>
