<svg width="50" height="50" viewBox="0 0 50 50" fill="none" xmlns="http://www.w3.org/2000/svg">
<rect width="50" height="50.0043" rx="7" fill="#FFED00"/>
<path d="M34.375 35.1584C33.7534 35.1584 33.1573 34.9115 32.7177 34.4719C32.2782 34.0324 32.0312 33.4363 32.0312 32.8147C32.0312 32.1931 32.2782 31.5969 32.7177 31.1574C33.1573 30.7178 33.7534 30.4709 34.375 30.4709C34.9966 30.4709 35.5927 30.7178 36.0323 31.1574C36.4718 31.5969 36.7188 32.1931 36.7188 32.8147C36.7188 33.4363 36.4718 34.0324 36.0323 34.4719C35.5927 34.9115 34.9966 35.1584 34.375 35.1584ZM36.7188 21.0959L39.7812 25.0022H32.8125V21.0959M15.625 35.1584C15.0034 35.1584 14.4073 34.9115 13.9677 34.4719C13.5282 34.0324 13.2812 33.4363 13.2812 32.8147C13.2812 32.1931 13.5282 31.5969 13.9677 31.1574C14.4073 30.7178 15.0034 30.4709 15.625 30.4709C16.2466 30.4709 16.8427 30.7178 17.2823 31.1574C17.7218 31.5969 17.9688 32.1931 17.9688 32.8147C17.9688 33.4363 17.7218 34.0324 17.2823 34.4719C16.8427 34.9115 16.2466 35.1584 15.625 35.1584ZM37.5 18.7522H32.8125V12.5022H10.9375C9.20312 12.5022 7.8125 13.8928 7.8125 15.6272V32.8147H10.9375C10.9375 34.0579 11.4314 35.2501 12.3104 36.1292C13.1895 37.0083 14.3818 37.5022 15.625 37.5022C16.8682 37.5022 18.0605 37.0083 18.9396 36.1292C19.8186 35.2501 20.3125 34.0579 20.3125 32.8147H29.6875C29.6875 34.0579 30.1814 35.2501 31.0604 36.1292C31.9395 37.0083 33.1318 37.5022 34.375 37.5022C35.6182 37.5022 36.8105 37.0083 37.6896 36.1292C38.5686 35.2501 39.0625 34.0579 39.0625 32.8147H42.1875V25.0022L37.5 18.7522Z" fill="#113393"/>
</svg>
