<svg width="50" height="50" viewBox="0 0 50 50" fill="none" xmlns="http://www.w3.org/2000/svg">
<rect width="50" height="50.0043" rx="7" fill="#FFED00"/>
<path d="M15.7697 25.0029V18.934C15.7877 17.741 16.0409 16.5633 16.5149 15.4684C16.9888 14.3735 17.6742 13.3829 18.5316 12.5533C19.3891 11.7237 20.4018 11.0715 21.5118 10.634C22.6217 10.1964 23.8071 9.98224 25 10.0036C26.1929 9.98224 27.3783 10.1964 28.4882 10.634C29.5982 11.0715 30.6109 11.7237 31.4684 12.5533C32.3258 13.3829 33.0112 14.3735 33.4851 15.4684C33.9591 16.5633 34.2123 17.741 34.2303 18.934V25.0029M29.6152 37.1177C30.8392 37.1177 32.0131 36.6315 32.8786 35.7659C33.7441 34.9004 34.2303 33.7265 34.2303 32.5025V27.3105M29.6152 37.1177C29.6152 37.8827 29.3113 38.6164 28.7703 39.1573C28.2294 39.6983 27.4957 40.0022 26.7307 40.0022H23.2693C22.5043 40.0022 21.7706 39.6983 21.2297 39.1573C20.6887 38.6164 20.3848 37.8827 20.3848 37.1177C20.3848 36.3527 20.6887 35.619 21.2297 35.0781C21.7706 34.5371 22.5043 34.2332 23.2693 34.2332H26.7307C27.4957 34.2332 28.2294 34.5371 28.7703 35.0781C29.3113 35.619 29.6152 36.3527 29.6152 37.1177ZM12.3083 21.5415H14.6159C14.9219 21.5415 15.2154 21.6631 15.4317 21.8795C15.6481 22.0958 15.7697 22.3893 15.7697 22.6953V29.6181C15.7697 29.9241 15.6481 30.2175 15.4317 30.4339C15.2154 30.6503 14.9219 30.7718 14.6159 30.7718H12.3083C11.6963 30.7718 11.1094 30.5287 10.6766 30.096C10.2439 29.6632 10.0007 29.0763 10.0007 28.4643V23.8491C10.0007 23.2371 10.2439 22.6502 10.6766 22.2174C11.1094 21.7846 11.6963 21.5415 12.3083 21.5415ZM37.6917 30.7718H35.3841C35.0781 30.7718 34.7846 30.6503 34.5683 30.4339C34.3519 30.2175 34.2303 29.9241 34.2303 29.6181V22.6953C34.2303 22.3893 34.3519 22.0958 34.5683 21.8795C34.7846 21.6631 35.0781 21.5415 35.3841 21.5415H37.6917C38.3037 21.5415 38.8906 21.7846 39.3234 22.2174C39.7561 22.6502 39.9993 23.2371 39.9993 23.8491V28.4643C39.9993 29.0763 39.7561 29.6632 39.3234 30.096C38.8906 30.5287 38.3037 30.7718 37.6917 30.7718Z" stroke="#113393" stroke-width="2.5" stroke-linecap="round" stroke-linejoin="round"/>
</svg>
