<svg width="50" height="50" viewBox="0 0 50 50" fill="none" xmlns="http://www.w3.org/2000/svg">
<rect width="50" height="50.0043" rx="7" fill="#FFED00"/>
<path d="M31.25 10.0022C29.0088 10.0022 26.9775 10.4222 25.39 11.2134C23.8038 12.0047 22.5 13.2934 22.5 15.0022V20.0022C22.5 20.1634 22.5538 20.3197 22.5787 20.4709C21.3275 20.153 20.041 19.9955 18.75 20.0022C16.5087 20.0022 14.4775 20.4222 12.89 21.2134C11.3037 22.0047 10 23.2934 10 25.0022V35.0022C10 36.7109 11.3038 37.9997 12.8913 38.7909C14.4775 39.5822 16.5087 40.0022 18.75 40.0022C20.9913 40.0022 23.0225 39.5822 24.61 38.7909C26.195 37.9997 27.5 36.7109 27.5 35.0022V34.4947C28.7228 34.8252 29.9833 34.9958 31.25 35.0022C33.4912 35.0022 35.5225 34.5822 37.11 33.7909C38.695 32.9997 40 31.7109 40 30.0022V15.0022C40 13.2934 38.6963 12.0047 37.1087 11.2134C35.5238 10.4222 33.4925 10.0022 31.25 10.0022ZM31.25 12.5022C33.1537 12.5022 34.8488 12.9122 35.9762 13.4784C37.105 14.0447 37.5 14.6409 37.5 15.0022C37.5 15.3647 37.105 15.9597 35.9762 16.5259C34.85 17.0922 33.1537 17.5022 31.25 17.5022C29.3463 17.5022 27.6512 17.0922 26.5238 16.5259C25.395 15.9597 25 15.3634 25 15.0022C25 14.6397 25.395 14.0447 26.5238 13.4784C27.65 12.9122 29.3463 12.5022 31.25 12.5022ZM25 18.5572C25.1313 18.6297 25.2537 18.7234 25.3912 18.7909C26.9775 19.5822 29.0088 20.0022 31.25 20.0022C33.4912 20.0022 35.5225 19.5822 37.11 18.7909C37.2463 18.7234 37.3687 18.6297 37.5 18.5572V20.0022C37.5 20.3647 37.105 20.9597 35.9762 21.5259C34.8488 22.0922 33.1537 22.5022 31.25 22.5022C29.3463 22.5022 27.6512 22.0922 26.5238 21.5259C25.395 20.9597 25 20.3634 25 20.0022V18.5572ZM18.75 22.5022C20.6538 22.5022 22.3488 22.9122 23.4762 23.4784C24.605 24.0447 25 24.6409 25 25.0022C25 25.3647 24.605 25.9597 23.4762 26.5259C22.3488 27.0922 20.6538 27.5022 18.75 27.5022C16.8463 27.5022 15.1512 27.0922 14.0237 26.5259C12.895 25.9597 12.5 25.3634 12.5 25.0022C12.5 24.6397 12.895 24.0447 14.0237 23.4784C15.15 22.9122 16.8463 22.5022 18.75 22.5022ZM37.5 23.5572V25.0022C37.5 25.3647 37.105 25.9597 35.9762 26.5259C34.8488 27.0922 33.1537 27.5022 31.25 27.5022C29.9767 27.5091 28.7105 27.3111 27.5 26.9159V25.0022C27.5 24.8409 27.4463 24.6847 27.4212 24.5334C28.5837 24.8359 29.8725 25.0022 31.25 25.0022C33.4912 25.0022 35.5225 24.5822 37.11 23.7909C37.2463 23.7234 37.3687 23.6297 37.5 23.5572ZM12.5 28.5572C12.6312 28.6297 12.7538 28.7234 12.8913 28.7909C14.4775 29.5822 16.5087 30.0022 18.75 30.0022C20.9913 30.0022 23.0225 29.5822 24.61 28.7909C24.7462 28.7234 24.8687 28.6297 25 28.5572V30.0022C25 30.3647 24.605 30.9597 23.4762 31.5259C22.3488 32.0922 20.6538 32.5022 18.75 32.5022C16.8463 32.5022 15.1512 32.0922 14.0237 31.5259C12.895 30.9597 12.5 30.3634 12.5 30.0022V28.5572ZM37.5 28.5572V30.0022C37.5 30.3647 37.105 30.9597 35.9762 31.5259C34.8488 32.0922 33.1537 32.5022 31.25 32.5022C29.8288 32.5022 28.545 32.3022 27.5 31.9547V29.5334C28.6475 29.8359 29.8975 30.0022 31.25 30.0022C33.4912 30.0022 35.5225 29.5822 37.11 28.7909C37.2463 28.7234 37.3687 28.6297 37.5 28.5572ZM12.5 33.5572C12.6312 33.6297 12.7538 33.7234 12.8913 33.7909C14.4775 34.5822 16.5087 35.0022 18.75 35.0022C20.9913 35.0022 23.0225 34.5822 24.61 33.7909C24.7462 33.7234 24.8687 33.6297 25 33.5572V35.0022C25 35.3647 24.605 35.9597 23.4762 36.5259C22.3488 37.0922 20.6538 37.5022 18.75 37.5022C16.8463 37.5022 15.1512 37.0922 14.0237 36.5259C12.895 35.9597 12.5 35.3634 12.5 35.0022V33.5572Z" fill="#113393"/>
</svg>
