<svg width="50" height="50" viewBox="0 0 50 50" fill="none" xmlns="http://www.w3.org/2000/svg">
<rect width="50" height="50.0043" rx="7" fill="#FFED00"/>
<path d="M26.8874 23.9095H23.3609C22.3179 23.9095 21.4735 23.1147 21.4735 22.1214C21.4735 21.128 22.3179 20.3333 23.3609 20.3333H28.4768C29.0728 20.3333 29.5695 19.8366 29.5695 19.2406C29.5695 18.6446 29.0728 18.1479 28.4768 18.1479H26.0927V16.9558C26.0927 16.3598 25.596 15.8631 25 15.8631C24.404 15.8631 23.9073 16.3598 23.9073 16.9558V18.1479H23.3609C21.0762 18.1479 19.2384 19.9359 19.2384 22.171C19.2384 24.4061 21.0762 26.1942 23.3609 26.1942H26.8874C27.9305 26.1942 28.7748 26.9889 28.7748 27.9823C28.7748 28.9757 27.9305 29.7704 26.8874 29.7704H21.5232C20.9272 29.7704 20.4305 30.2671 20.4305 30.8631C20.4305 31.4591 20.9272 31.9558 21.5232 31.9558H23.9073V33.1479C23.9073 33.7439 24.404 34.2406 25 34.2406C25.596 34.2406 26.0927 33.7439 26.0927 33.1479V31.9558H26.8874C29.1722 31.9558 31.0099 30.1677 31.0099 27.9326C31.0596 25.6975 29.1722 23.9095 26.8874 23.9095Z" fill="#113393"/>
<path d="M25 10.0022C16.7053 10.0022 10 16.7075 10 25.0022C10 33.2969 16.7053 40.0022 25 40.0022C33.2947 40.0022 40 33.2969 40 25.0022C40 16.7075 33.2947 10.0022 25 10.0022ZM25 37.8167C17.947 37.8167 12.1854 32.0551 12.1854 25.0022C12.1854 17.9492 17.947 12.1876 25 12.1876C32.053 12.1876 37.8146 17.9492 37.8146 25.0022C37.8146 32.0551 32.053 37.8167 25 37.8167Z" fill="#113393"/>
</svg>
