<svg width="41" height="40" viewBox="0 0 41 40" fill="none" xmlns="http://www.w3.org/2000/svg">
<rect width="40.8999" height="40" rx="5" fill="#FFED00"/>
<path d="M20.45 8.5C15.1951 8.5 10.9302 12.6126 10.9302 17.6772C10.9302 21.5232 16.0328 27.6159 19.0411 30.8907C19.4219 31.3096 19.9169 31.5 20.45 31.5C20.9832 31.5 21.4782 31.2715 21.859 30.8907C24.8673 27.6159 29.9699 21.5232 29.9699 17.6772C29.9699 12.6126 25.705 8.5 20.45 8.5ZM20.6024 29.7483C20.5262 29.8245 20.412 29.8245 20.2977 29.7483C16.604 25.7119 12.6438 20.457 12.6438 17.6772C12.6438 13.5646 16.1471 10.2136 20.45 10.2136C24.753 10.2136 28.2563 13.5646 28.2563 17.6772C28.2563 20.457 24.2961 25.7119 20.6024 29.7483Z" fill="#113393"/>
<path d="M20.45 13.793C18.1653 13.793 16.2994 15.6589 16.2994 17.9437C16.2994 20.2285 18.1653 22.1324 20.45 22.1324C22.7348 22.1324 24.6007 20.2666 24.6007 17.9818C24.6007 15.697 22.7348 13.793 20.45 13.793ZM20.45 20.4189C19.0792 20.4189 18.013 19.3146 18.013 17.9818C18.013 16.649 19.1173 15.5447 20.45 15.5447C21.7828 15.5447 22.8871 16.649 22.8871 17.9818C22.8871 19.3146 21.8209 20.4189 20.45 20.4189Z" fill="#113393"/>
</svg>
