<svg width="41" height="40" viewBox="0 0 41 40" fill="none" xmlns="http://www.w3.org/2000/svg">
<rect width="40.8999" height="40" rx="5" fill="#FFED00"/>
<path d="M26.2008 30C23.3988 30 19.4206 27.9936 15.7538 24.5344C10.7725 19.7606 8.66232 14.4333 10.8762 12.081C10.98 11.9772 11.1184 11.8734 11.2568 11.8043L14.0588 10.213C14.7852 9.79788 15.6846 10.0054 16.1689 10.6973L18.2099 13.6031C18.452 13.949 18.5558 14.3641 18.452 14.7792C18.3829 15.1597 18.1407 15.5057 17.7948 15.7478L16.584 16.5434C17.518 17.8926 20.0433 21.2481 24.0561 23.6349C24.0907 23.6695 24.1252 23.6349 24.1252 23.6349L24.9901 22.4588C25.4744 21.8015 26.4084 21.6286 27.1348 22.0783L30.179 24.0155C30.9054 24.4652 31.113 25.3992 30.6633 26.1256L29.0028 28.7893C28.899 28.9276 28.7953 29.066 28.6915 29.1698C28.0688 29.7233 27.204 30 26.2008 30ZM14.8544 11.5621L12.0178 13.1534C10.7033 14.5717 12.3291 19.1033 16.8608 23.3928C21.4616 27.7515 26.2008 29.3081 27.7229 27.9936L29.3833 25.33L26.3392 23.3928C26.3046 23.3928 26.27 23.3928 26.27 23.3928L25.4052 24.5689C24.9209 25.2262 23.9869 25.3992 23.295 24.9841C18.9709 22.3896 16.2727 18.792 15.3041 17.3737C15.062 17.0277 14.9928 16.6126 15.062 16.2321C15.1311 15.817 15.3733 15.4711 15.7192 15.2635L16.93 14.4679L14.9236 11.5967C14.889 11.5967 14.8544 11.5621 14.8544 11.5621Z" fill="#113393"/>
</svg>
