<svg width="31" height="30" viewBox="0 0 31 30" fill="none" xmlns="http://www.w3.org/2000/svg">
<rect x="30.1217" y="30" width="30.1217" height="30" rx="15" transform="rotate(180 30.1217 30)" fill="#F6F6F6"/>
<path fill-rule="evenodd" clip-rule="evenodd" d="M16.0187 19.5592C15.8403 19.7376 15.5983 19.8378 15.346 19.8378C15.0937 19.8378 14.8517 19.7376 14.6733 19.5592L9.29049 14.1765C9.19961 14.0887 9.12712 13.9837 9.07725 13.8676C9.02738 13.7515 9.00113 13.6267 9.00004 13.5003C8.99894 13.374 9.02301 13.2487 9.07086 13.1317C9.1187 13.0148 9.18935 12.9086 9.2787 12.8192C9.36804 12.7299 9.47428 12.6592 9.59121 12.6114C9.70815 12.5635 9.83345 12.5395 9.95979 12.5406C10.0861 12.5417 10.211 12.5679 10.3271 12.6178C10.4432 12.6676 10.5482 12.7401 10.6359 12.831L15.346 17.5411L20.056 12.831C20.2355 12.6577 20.4759 12.5618 20.7253 12.5639C20.9748 12.5661 21.2135 12.6662 21.3899 12.8426C21.5663 13.019 21.6664 13.2577 21.6686 13.5072C21.6707 13.7567 21.5748 13.997 21.4015 14.1765L16.0187 19.5592Z" fill="#474747"/>
</svg>
